<?xml version="1.0" standalone="no"?>
<!DOCTYPE svg PUBLIC "-//W3C//DTD SVG 20010904//EN"
 "http://www.w3.org/TR/2001/REC-SVG-20010904/DTD/svg10.dtd">
<svg version="1.0" xmlns="http://www.w3.org/2000/svg"
 width="512.000000pt" height="512.000000pt" viewBox="0 0 512.000000 512.000000"
 preserveAspectRatio="xMidYMid meet">
<metadata>
Created by potrace 1.11, written by Peter Selinger 2001-2013
</metadata>
<g transform="translate(0.000000,512.000000) scale(0.100000,-0.100000)"
fill="#000000" stroke="none">
<path d="M2500 4020 c-14 -4 -521 -256 -1127 -559 -972 -486 -1102 -554 -1111
-579 -18 -52 0 -67 182 -158 l171 -85 0 -909 0 -909 -26 -28 c-15 -15 -64
-103 -109 -195 -75 -154 -82 -171 -77 -213 7 -51 29 -85 71 -111 25 -15 57
-18 195 -19 195 -1 230 5 271 52 29 33 34 48 32 108 -1 36 -153 347 -186 380
l-23 23 0 871 c0 479 3 871 6 871 3 0 84 -39 179 -87 l172 -87 1 -466 c0 -256
3 -478 5 -493 29 -174 200 -351 455 -471 167 -78 422 -151 600 -170 31 -4 67
-9 80 -12 13 -3 125 -7 249 -9 265 -3 374 5 580 46 476 95 819 317 896 579 13
46 16 123 16 525 l0 471 136 67 c76 38 144 72 152 77 8 4 136 68 283 141 148
74 273 139 278 145 15 18 19 55 9 75 -6 10 -498 261 -1131 578 -1185 593
-1149 577 -1229 551z m1087 -642 c563 -281 1022 -515 1021 -519 -5 -13 -2028
-1019 -2049 -1019 -15 0 -1618 794 -2018 999 l-44 23 1029 514 c566 283 1030
514 1033 514 2 0 464 -230 1028 -512z m-1701 -1375 c595 -299 610 -307 670
-307 60 -1 66 1 675 307 339 169 617 307 620 307 2 0 4 -195 3 -432 -1 -377
-3 -439 -18 -477 -63 -170 -322 -335 -659 -422 -45 -11 -91 -23 -102 -25 -213
-38 -320 -48 -520 -48 -285 1 -499 33 -735 111 -272 90 -467 227 -533 373 -19
43 -20 67 -21 483 -1 240 1 437 5 437 3 0 280 -138 615 -307z m-1126 -1463
l70 -140 -140 0 c-77 0 -140 2 -140 5 0 7 134 275 137 275 2 0 34 -63 73 -140z"/>
</g>
</svg>
